<svg xmlns="http://www.w3.org/2000/svg" xmlns:xlink="http://www.w3.org/1999/xlink" xmlns:lucid="lucid" width="1287.4" height="592.55"><g transform="translate(-1281.7003725768016 884.960107020187)" lucid:page-tab-id="0_0"><path d="M1000-1000h2000V0H1000z" fill="#fff"/><path d="M1283.2-883.46h1284.4v589.55H1283.2z" stroke="#5e5e5e" stroke-width="3" fill="#fff"/><path d="M1337-846.33h300v217h-300z" stroke="#333" stroke-width="2" fill="#fff"/><path d="M1337-808.73h300" stroke="#333" stroke-width="2" fill="none"/><use xlink:href="#a" transform="matrix(1,0,0,1,1345.0126723100973,-838.3333333333335) translate(90.65 14.6)"/><use xlink:href="#b" transform="matrix(1,0,0,1,1349.0126723100973,-800.7333333333335) translate(109.05 31.6)"/><use xlink:href="#c" transform="matrix(1,0,0,1,1349.0126723100973,-800.7333333333335) translate(133 31.6)"/><use xlink:href="#d" transform="matrix(1,0,0,1,1349.0126723100973,-800.7333333333335) translate(88.575 53.2)"/><use xlink:href="#e" transform="matrix(1,0,0,1,1349.0126723100973,-800.7333333333335) translate(143.525 53.2)"/><use xlink:href="#f" transform="matrix(1,0,0,1,1349.0126723100973,-800.7333333333335) translate(70.625 74.80000000000001)"/><use xlink:href="#e" transform="matrix(1,0,0,1,1349.0126723100973,-800.7333333333335) translate(161.47500000000002 74.80000000000001)"/><use xlink:href="#g" transform="matrix(1,0,0,1,1349.0126723100973,-800.7333333333335) translate(77.07499999999999 96.40000000000002)"/><use xlink:href="#h" transform="matrix(1,0,0,1,1349.0126723100973,-800.7333333333335) translate(160.975 96.40000000000002)"/><use xlink:href="#i" transform="matrix(1,0,0,1,1349.0126723100973,-800.7333333333335) translate(72.55 118.00000000000001)"/><use xlink:href="#h" transform="matrix(1,0,0,1,1349.0126723100973,-800.7333333333335) translate(165.5 118.00000000000001)"/><use xlink:href="#j" transform="matrix(1,0,0,1,1349.0126723100973,-800.7333333333335) translate(138 139.6)"/><path d="M2219.2-813.83h300v152h-300z" stroke="#333" stroke-width="2" fill="#fff"/><path d="M2219.2-776.23h300" stroke="#333" stroke-width="2" fill="none"/><use xlink:href="#k" transform="matrix(1,0,0,1,2227.1875772955027,-805.8333333333335) translate(60.22500000000001 14.6)"/><use xlink:href="#b" transform="matrix(1,0,0,1,2231.1875772955027,-768.2333333333335) translate(109.05 31.5)"/><use xlink:href="#c" transform="matrix(1,0,0,1,2231.1875772955027,-768.2333333333335) translate(133 31.5)"/><use xlink:href="#d" transform="matrix(1,0,0,1,2231.1875772955027,-768.2333333333335) translate(88.575 53.1)"/><use xlink:href="#e" transform="matrix(1,0,0,1,2231.1875772955027,-768.2333333333335) translate(143.525 53.1)"/><use xlink:href="#l" transform="matrix(1,0,0,1,2231.1875772955027,-768.2333333333335) translate(81.575 74.7)"/><use xlink:href="#m" transform="matrix(1,0,0,1,2231.1875772955027,-768.2333333333335) translate(150.525 74.7)"/><path d="M1778.1-813.83h300v152h-300z" stroke="#333" stroke-width="2" fill="#fff"/><path d="M1778.1-776.23h300" stroke="#333" stroke-width="2" fill="none"/><use xlink:href="#n" transform="matrix(1,0,0,1,1786.1001248028,-805.8333333333335) translate(46.72500000000002 14.6)"/><use xlink:href="#b" transform="matrix(1,0,0,1,1790.1001248028,-768.2333333333335) translate(109.05 31.5)"/><use xlink:href="#o" transform="matrix(1,0,0,1,1790.1001248028,-768.2333333333335) translate(133 31.5)"/><use xlink:href="#p" transform="matrix(1,0,0,1,1790.1001248028,-768.2333333333335) translate(31.64999999999999 53.1)"/><use xlink:href="#q" transform="matrix(1,0,0,1,1790.1001248028,-768.2333333333335) translate(149.5 53.1)"/><use xlink:href="#r" transform="matrix(1,0,0,1,1790.1001248028,-768.2333333333335) translate(28.099999999999994 74.7)"/><use xlink:href="#s" transform="matrix(1,0,0,1,1790.1001248028,-768.2333333333335) translate(105.05 74.7)"/><path d="M1639-737.83h119.6" stroke="#5e5e5e" stroke-width="2" fill="none"/><path d="M1639.04-736.86H1638v-1.95h1.04z" stroke="#5e5e5e" stroke-width=".05" fill="#5e5e5e"/><path d="M1773.86-737.83l-14.26 4.63v-9.27z" stroke="#5e5e5e" stroke-width="2" fill="#5e5e5e"/><use xlink:href="#t" transform="matrix(1,0,0,1,1638.0126723100973,-733.8333333333334) translate(0 14.4)"/><g><use xlink:href="#u" transform="matrix(1,0,0,1,1750.6001248028003,-768.0685882489577) translate(0 14.4)"/></g><path d="M2217.2-737.83h-119.6" stroke="#5e5e5e" stroke-width="2" fill="none"/><path d="M2218.2-736.86h-1.04v-1.95h1.03z" stroke="#5e5e5e" stroke-width=".05" fill="#5e5e5e"/><path d="M2082.34-737.83l14.26-4.64v9.27z" stroke="#5e5e5e" stroke-width="2" fill="#5e5e5e"/><g><use xlink:href="#t" transform="matrix(1,0,0,1,2208.1875772955027,-763.4333333333334) translate(0 14.4)"/></g><g><use xlink:href="#u" transform="matrix(1,0,0,1,2078.6001248028,-729.1980784177091) translate(0 14.4)"/></g><path d="M1337-486.67h300v152h-300z" stroke="#333" stroke-width="2" fill="#fff"/><path d="M1337-449.07h300" stroke="#333" stroke-width="2" fill="none"/><g><use xlink:href="#v" transform="matrix(1,0,0,1,1345.0126723100973,-478.66666666666674) translate(117.6 14.6)"/></g><g><use xlink:href="#b" transform="matrix(1,0,0,1,1349.0126723100973,-441.0666666666667) translate(109.05 31.5)"/><use xlink:href="#c" transform="matrix(1,0,0,1,1349.0126723100973,-441.0666666666667) translate(133 31.5)"/><use xlink:href="#w" transform="matrix(1,0,0,1,1349.0126723100973,-441.0666666666667) translate(83.575 53.1)"/><use xlink:href="#e" transform="matrix(1,0,0,1,1349.0126723100973,-441.0666666666667) translate(148.525 53.1)"/><use xlink:href="#p" transform="matrix(1,0,0,1,1349.0126723100973,-441.0666666666667) translate(31.64999999999999 74.7)"/><use xlink:href="#x" transform="matrix(1,0,0,1,1349.0126723100973,-441.0666666666667) translate(149.5 74.7)"/></g><path d="M1487-627.33v121.16" stroke="#5e5e5e" stroke-width="2" fill="none"/><path d="M1488-627.3h-1.96v-1.03h1.95z" stroke="#5e5e5e" stroke-width=".05" fill="#5e5e5e"/><path d="M1487-490.9l-4.62-14.27h9.27z" stroke="#5e5e5e" stroke-width="2" fill="#5e5e5e"/><g><use xlink:href="#t" transform="matrix(1,0,0,1,1469.0126723100973,-629.1333333333334) translate(0 14.4)"/></g><g><use xlink:href="#u" transform="matrix(1,0,0,1,1499.6479272257213,-508.46666666666675) translate(0 14.4)"/></g><path d="M2219.2-508.67h300v174h-300z" stroke="#333" stroke-width="2" fill="#fff"/><path d="M2219.2-471.07h300" stroke="#333" stroke-width="2" fill="none"/><g><use xlink:href="#y" transform="matrix(1,0,0,1,2227.1875772955027,-500.66666666666674) translate(123.025 14.6)"/></g><g><use xlink:href="#b" transform="matrix(1,0,0,1,2231.1875772955027,-463.0666666666667) translate(109.05 31.69999999999999)"/><use xlink:href="#o" transform="matrix(1,0,0,1,2231.1875772955027,-463.0666666666667) translate(133 31.69999999999999)"/><use xlink:href="#z" transform="matrix(1,0,0,1,2231.1875772955027,-463.0666666666667) translate(88.575 53.29999999999999)"/><use xlink:href="#A" transform="matrix(1,0,0,1,2231.1875772955027,-463.0666666666667) translate(143.525 53.29999999999999)"/><use xlink:href="#B" transform="matrix(1,0,0,1,2231.1875772955027,-463.0666666666667) translate(89.625 74.89999999999999)"/><use xlink:href="#C" transform="matrix(1,0,0,1,2231.1875772955027,-463.0666666666667) translate(142.47500000000002 74.89999999999999)"/><use xlink:href="#D" transform="matrix(1,0,0,1,2231.1875772955027,-463.0666666666667) translate(72.6 96.5)"/><use xlink:href="#E" transform="matrix(1,0,0,1,2231.1875772955027,-463.0666666666667) translate(159.5 96.5)"/></g><defs><path fill="#333" d="M135-194c53 0 70 44 70 98 0 56-19 98-73 100-31 1-45-17-59-34 3 33 2 69 2 105H25l-1-265h48c2 10 0 23 3 31 11-24 29-35 60-35zM114-30c33 0 39-31 40-66 0-38-9-64-40-64-56 0-55 130 0 130" id="F"/><path fill="#333" d="M114-157C55-157 80-60 75 0H25v-261h50l-1 109c12-26 28-41 61-42 86-1 58 113 63 194h-50c-7-57 23-157-34-157" id="G"/><path fill="#333" d="M25-224v-37h50v37H25zM25 0v-190h50V0H25" id="H"/><path fill="#333" d="M25 0v-261h50V0H25" id="I"/><path fill="#333" d="M110-194c64 0 96 36 96 99 0 64-35 99-97 99-61 0-95-36-95-99 0-62 34-99 96-99zm-1 164c35 0 45-28 45-65 0-40-10-65-43-65-34 0-45 26-45 65 0 36 10 65 43 65" id="J"/><path fill="#333" d="M137-138c1-29-70-34-71-4 15 46 118 7 119 86 1 83-164 76-172 9l43-7c4 19 20 25 44 25 33 8 57-30 24-41C81-84 22-81 20-136c-2-80 154-74 161-7" id="K"/><path fill="#333" d="M185-48c-13 30-37 53-82 52C43 2 14-33 14-96s30-98 90-98c62 0 83 45 84 108H66c0 31 8 55 39 56 18 0 30-7 34-22zm-45-69c5-46-57-63-70-21-2 6-4 13-4 21h74" id="L"/><path fill="#333" d="M135-150c-39-12-60 13-60 57V0H25l-1-190h47c2 13-1 29 3 40 6-28 27-53 61-41v41" id="M"/><g id="a"><use transform="matrix(0.05,0,0,0.05,0,0)" xlink:href="#F"/><use transform="matrix(0.05,0,0,0.05,10.950000000000001,0)" xlink:href="#G"/><use transform="matrix(0.05,0,0,0.05,21.900000000000002,0)" xlink:href="#H"/><use transform="matrix(0.05,0,0,0.05,26.900000000000002,0)" xlink:href="#I"/><use transform="matrix(0.05,0,0,0.05,31.900000000000002,0)" xlink:href="#J"/><use transform="matrix(0.05,0,0,0.05,42.85,0)" xlink:href="#K"/><use transform="matrix(0.05,0,0,0.05,52.85,0)" xlink:href="#J"/><use transform="matrix(0.05,0,0,0.05,63.800000000000004,0)" xlink:href="#F"/><use transform="matrix(0.05,0,0,0.05,74.75,0)" xlink:href="#G"/><use transform="matrix(0.05,0,0,0.05,85.7,0)" xlink:href="#L"/><use transform="matrix(0.05,0,0,0.05,95.7,0)" xlink:href="#M"/></g><path fill="#333" d="M24-231v-30h32v30H24zM24 0v-190h32V0H24" id="N"/><path fill="#333" d="M85-194c31 0 48 13 60 33l-1-100h32l1 261h-30c-2-10 0-23-3-31C134-8 116 4 85 4 32 4 16-35 15-94c0-66 23-100 70-100zm9 24c-40 0-46 34-46 75 0 40 6 74 45 74 42 0 51-32 51-76 0-42-9-74-50-73" id="O"/><path fill="#333" d="M33-154v-36h34v36H33zM33 0v-36h34V0H33" id="P"/><g id="b"><use transform="matrix(0.05,0,0,0.05,0,0)" xlink:href="#N"/><use transform="matrix(0.05,0,0,0.05,3.95,0)" xlink:href="#O"/><use transform="matrix(0.05,0,0,0.05,13.949999999999998,0)" xlink:href="#P"/></g><path fill="#333" d="M84 4C-5 8 30-112 23-190h32v120c0 31 7 50 39 49 72-2 45-101 50-169h31l1 190h-30c-1-10 1-25-2-33-11 22-28 36-60 37" id="Q"/><g id="c"><use transform="matrix(0.05,0,0,0.05,0,0)" xlink:href="#Q"/><use transform="matrix(0.05,0,0,0.05,10,0)" xlink:href="#Q"/><use transform="matrix(0.05,0,0,0.05,20,0)" xlink:href="#N"/><use transform="matrix(0.05,0,0,0.05,23.95,0)" xlink:href="#O"/></g><path fill="#333" d="M117-194c89-4 53 116 60 194h-32v-121c0-31-8-49-39-48C34-167 62-67 57 0H25l-1-190h30c1 10-1 24 2 32 11-22 29-35 61-36" id="R"/><path fill="#333" d="M141-36C126-15 110 5 73 4 37 3 15-17 15-53c-1-64 63-63 125-63 3-35-9-54-41-54-24 1-41 7-42 31l-33-3c5-37 33-52 76-52 45 0 72 20 72 64v82c-1 20 7 32 28 27v20c-31 9-61-2-59-35zM48-53c0 20 12 33 32 33 41-3 63-29 60-74-43 2-92-5-92 41" id="S"/><path fill="#333" d="M210-169c-67 3-38 105-44 169h-31v-121c0-29-5-50-35-48C34-165 62-65 56 0H25l-1-190h30c1 10-1 24 2 32 10-44 99-50 107 0 11-21 27-35 58-36 85-2 47 119 55 194h-31v-121c0-29-5-49-35-48" id="T"/><path fill="#333" d="M100-194c63 0 86 42 84 106H49c0 40 14 67 53 68 26 1 43-12 49-29l28 8c-11 28-37 45-77 45C44 4 14-33 15-96c1-61 26-98 85-98zm52 81c6-60-76-77-97-28-3 7-6 17-6 28h103" id="U"/><g id="d"><use transform="matrix(0.05,0,0,0.05,0,0)" xlink:href="#R"/><use transform="matrix(0.05,0,0,0.05,10,0)" xlink:href="#S"/><use transform="matrix(0.05,0,0,0.05,20,0)" xlink:href="#T"/><use transform="matrix(0.05,0,0,0.05,34.95,0)" xlink:href="#U"/><use transform="matrix(0.05,0,0,0.05,44.95,0)" xlink:href="#P"/></g><path fill="#333" d="M135-143c-3-34-86-38-87 0 15 53 115 12 119 90S17 21 10-45l28-5c4 36 97 45 98 0-10-56-113-15-118-90-4-57 82-63 122-42 12 7 21 19 24 35" id="V"/><path fill="#333" d="M59-47c-2 24 18 29 38 22v24C64 9 27 4 27-40v-127H5v-23h24l9-43h21v43h35v23H59v120" id="W"/><path fill="#333" d="M114-163C36-179 61-72 57 0H25l-1-190h30c1 12-1 29 2 39 6-27 23-49 58-41v29" id="X"/><path fill="#333" d="M177-190C167-65 218 103 67 71c-23-6-38-20-44-43l32-5c15 47 100 32 89-28v-30C133-14 115 1 83 1 29 1 15-40 15-95c0-56 16-97 71-98 29-1 48 16 59 35 1-10 0-23 2-32h30zM94-22c36 0 50-32 50-73 0-42-14-75-50-75-39 0-46 34-46 75s6 73 46 73" id="Y"/><g id="e"><use transform="matrix(0.05,0,0,0.05,0,0)" xlink:href="#V"/><use transform="matrix(0.05,0,0,0.05,9,0)" xlink:href="#W"/><use transform="matrix(0.05,0,0,0.05,14,0)" xlink:href="#X"/><use transform="matrix(0.05,0,0,0.05,19.95,0)" xlink:href="#N"/><use transform="matrix(0.05,0,0,0.05,23.9,0)" xlink:href="#R"/><use transform="matrix(0.05,0,0,0.05,33.9,0)" xlink:href="#Y"/></g><path fill="#333" d="M100-194c62-1 85 37 85 99 1 63-27 99-86 99S16-35 15-95c0-66 28-99 85-99zM99-20c44 1 53-31 53-75 0-43-8-75-51-75s-53 32-53 75 10 74 51 75" id="Z"/><path fill="#333" d="M24 0v-261h32V0H24" id="aa"/><path fill="#333" d="M179-190L93 31C79 59 56 82 12 73V49c39 6 53-20 64-50L1-190h34L92-34l54-156h33" id="ab"/><g id="f"><use transform="matrix(0.05,0,0,0.05,0,0)" xlink:href="#R"/><use transform="matrix(0.05,0,0,0.05,10,0)" xlink:href="#S"/><use transform="matrix(0.05,0,0,0.05,20,0)" xlink:href="#W"/><use transform="matrix(0.05,0,0,0.05,25,0)" xlink:href="#N"/><use transform="matrix(0.05,0,0,0.05,28.950000000000003,0)" xlink:href="#Z"/><use transform="matrix(0.05,0,0,0.05,38.95,0)" xlink:href="#R"/><use transform="matrix(0.05,0,0,0.05,48.95,0)" xlink:href="#S"/><use transform="matrix(0.05,0,0,0.05,58.95,0)" xlink:href="#aa"/><use transform="matrix(0.05,0,0,0.05,62.900000000000006,0)" xlink:href="#N"/><use transform="matrix(0.05,0,0,0.05,66.85000000000001,0)" xlink:href="#W"/><use transform="matrix(0.05,0,0,0.05,71.85000000000001,0)" xlink:href="#ab"/><use transform="matrix(0.05,0,0,0.05,80.85000000000001,0)" xlink:href="#P"/></g><path fill="#333" d="M115-194c53 0 69 39 70 98 0 66-23 100-70 100C84 3 66-7 56-30L54 0H23l1-261h32v101c10-23 28-34 59-34zm-8 174c40 0 45-34 45-75 0-40-5-75-45-74-42 0-51 32-51 76 0 43 10 73 51 73" id="ac"/><path fill="#333" d="M30-248c118-7 216 8 213 122C240-48 200 0 122 0H30v-248zM63-27c89 8 146-16 146-99s-60-101-146-95v194" id="ad"/><g id="g"><use transform="matrix(0.05,0,0,0.05,0,0)" xlink:href="#ac"/><use transform="matrix(0.05,0,0,0.05,10,0)" xlink:href="#Z"/><use transform="matrix(0.05,0,0,0.05,20,0)" xlink:href="#X"/><use transform="matrix(0.05,0,0,0.05,25.950000000000003,0)" xlink:href="#R"/><use transform="matrix(0.05,0,0,0.05,35.95,0)" xlink:href="#ad"/><use transform="matrix(0.05,0,0,0.05,48.900000000000006,0)" xlink:href="#S"/><use transform="matrix(0.05,0,0,0.05,58.900000000000006,0)" xlink:href="#W"/><use transform="matrix(0.05,0,0,0.05,63.900000000000006,0)" xlink:href="#U"/><use transform="matrix(0.05,0,0,0.05,73.9,0)" xlink:href="#P"/></g><g id="h"><use transform="matrix(0.05,0,0,0.05,0,0)" xlink:href="#ad"/><use transform="matrix(0.05,0,0,0.05,12.950000000000001,0)" xlink:href="#S"/><use transform="matrix(0.05,0,0,0.05,22.950000000000003,0)" xlink:href="#W"/><use transform="matrix(0.05,0,0,0.05,27.950000000000003,0)" xlink:href="#U"/></g><path fill="#333" d="M106-169C34-169 62-67 57 0H25v-261h32l-1 103c12-21 28-36 61-36 89 0 53 116 60 194h-32v-121c2-32-8-49-39-48" id="ae"/><g id="i"><use transform="matrix(0.05,0,0,0.05,0,0)" xlink:href="#O"/><use transform="matrix(0.05,0,0,0.05,10,0)" xlink:href="#U"/><use transform="matrix(0.05,0,0,0.05,20,0)" xlink:href="#S"/><use transform="matrix(0.05,0,0,0.05,30,0)" xlink:href="#W"/><use transform="matrix(0.05,0,0,0.05,35,0)" xlink:href="#ae"/><use transform="matrix(0.05,0,0,0.05,45,0)" xlink:href="#ad"/><use transform="matrix(0.05,0,0,0.05,57.95,0)" xlink:href="#S"/><use transform="matrix(0.05,0,0,0.05,67.95,0)" xlink:href="#W"/><use transform="matrix(0.05,0,0,0.05,72.95,0)" xlink:href="#U"/><use transform="matrix(0.05,0,0,0.05,82.95,0)" xlink:href="#P"/></g><path fill="#333" d="M123 10C108 53 80 86 19 72V37c35 8 53-11 59-39L3-190h52l48 148c12-52 28-100 44-148h51" id="af"/><path fill="#333" d="M-4 44V30h207v14H-4" id="ag"/><path fill="#333" d="M190-63c-7 42-38 67-86 67-59 0-84-38-90-98-12-110 154-137 174-36l-49 2c-2-19-15-32-35-32-30 0-35 28-38 64-6 74 65 87 74 30" id="ah"/><g id="k"><use transform="matrix(0.05,0,0,0.05,0,0)" xlink:href="#F"/><use transform="matrix(0.05,0,0,0.05,10.950000000000001,0)" xlink:href="#G"/><use transform="matrix(0.05,0,0,0.05,21.900000000000002,0)" xlink:href="#H"/><use transform="matrix(0.05,0,0,0.05,26.900000000000002,0)" xlink:href="#I"/><use transform="matrix(0.05,0,0,0.05,31.900000000000002,0)" xlink:href="#J"/><use transform="matrix(0.05,0,0,0.05,42.85,0)" xlink:href="#K"/><use transform="matrix(0.05,0,0,0.05,52.85,0)" xlink:href="#J"/><use transform="matrix(0.05,0,0,0.05,63.800000000000004,0)" xlink:href="#F"/><use transform="matrix(0.05,0,0,0.05,74.75,0)" xlink:href="#G"/><use transform="matrix(0.05,0,0,0.05,85.7,0)" xlink:href="#af"/><use transform="matrix(0.05,0,0,0.05,95.7,0)" xlink:href="#ag"/><use transform="matrix(0.05,0,0,0.05,105.7,0)" xlink:href="#K"/><use transform="matrix(0.05,0,0,0.05,115.7,0)" xlink:href="#ah"/><use transform="matrix(0.05,0,0,0.05,125.7,0)" xlink:href="#G"/><use transform="matrix(0.05,0,0,0.05,136.65,0)" xlink:href="#J"/><use transform="matrix(0.05,0,0,0.05,147.6,0)" xlink:href="#J"/><use transform="matrix(0.05,0,0,0.05,158.54999999999998,0)" xlink:href="#I"/></g><path fill="#333" d="M96-169c-40 0-48 33-48 73s9 75 48 75c24 0 41-14 43-38l32 2c-6 37-31 61-74 61-59 0-76-41-82-99-10-93 101-131 147-64 4 7 5 14 7 22l-32 3c-4-21-16-35-41-35" id="ai"/><g id="l"><use transform="matrix(0.05,0,0,0.05,0,0)" xlink:href="#ai"/><use transform="matrix(0.05,0,0,0.05,9,0)" xlink:href="#U"/><use transform="matrix(0.05,0,0,0.05,19,0)" xlink:href="#R"/><use transform="matrix(0.05,0,0,0.05,29,0)" xlink:href="#W"/><use transform="matrix(0.05,0,0,0.05,34,0)" xlink:href="#Q"/><use transform="matrix(0.05,0,0,0.05,44,0)" xlink:href="#X"/><use transform="matrix(0.05,0,0,0.05,49.95,0)" xlink:href="#ab"/><use transform="matrix(0.05,0,0,0.05,58.95,0)" xlink:href="#P"/></g><g id="m"><use transform="matrix(0.05,0,0,0.05,0,0)" xlink:href="#V"/><use transform="matrix(0.05,0,0,0.05,9,0)" xlink:href="#W"/><use transform="matrix(0.05,0,0,0.05,14,0)" xlink:href="#X"/><use transform="matrix(0.05,0,0,0.05,19.95,0)" xlink:href="#N"/><use transform="matrix(0.05,0,0,0.05,23.9,0)" xlink:href="#R"/><use transform="matrix(0.05,0,0,0.05,33.9,0)" xlink:href="#Y"/></g><g id="n"><use transform="matrix(0.05,0,0,0.05,0,0)" xlink:href="#F"/><use transform="matrix(0.05,0,0,0.05,10.950000000000001,0)" xlink:href="#G"/><use transform="matrix(0.05,0,0,0.05,21.900000000000002,0)" xlink:href="#H"/><use transform="matrix(0.05,0,0,0.05,26.900000000000002,0)" xlink:href="#I"/><use transform="matrix(0.05,0,0,0.05,31.900000000000002,0)" xlink:href="#J"/><use transform="matrix(0.05,0,0,0.05,42.85,0)" xlink:href="#K"/><use transform="matrix(0.05,0,0,0.05,52.85,0)" xlink:href="#J"/><use transform="matrix(0.05,0,0,0.05,63.800000000000004,0)" xlink:href="#F"/><use transform="matrix(0.05,0,0,0.05,74.75,0)" xlink:href="#G"/><use transform="matrix(0.05,0,0,0.05,85.7,0)" xlink:href="#L"/><use transform="matrix(0.05,0,0,0.05,95.7,0)" xlink:href="#M"/><use transform="matrix(0.05,0,0,0.05,102.7,0)" xlink:href="#K"/><use transform="matrix(0.05,0,0,0.05,112.7,0)" xlink:href="#ag"/><use transform="matrix(0.05,0,0,0.05,122.7,0)" xlink:href="#K"/><use transform="matrix(0.05,0,0,0.05,132.7,0)" xlink:href="#ah"/><use transform="matrix(0.05,0,0,0.05,142.7,0)" xlink:href="#G"/><use transform="matrix(0.05,0,0,0.05,153.64999999999998,0)" xlink:href="#J"/><use transform="matrix(0.05,0,0,0.05,164.59999999999997,0)" xlink:href="#J"/><use transform="matrix(0.05,0,0,0.05,175.54999999999995,0)" xlink:href="#I"/><use transform="matrix(0.05,0,0,0.05,180.54999999999995,0)" xlink:href="#K"/></g><g id="o"><use transform="matrix(0.05,0,0,0.05,0,0)" xlink:href="#Q"/><use transform="matrix(0.05,0,0,0.05,10,0)" xlink:href="#Q"/><use transform="matrix(0.05,0,0,0.05,20,0)" xlink:href="#N"/><use transform="matrix(0.05,0,0,0.05,23.95,0)" xlink:href="#O"/></g><path fill="#333" d="M115-194c55 1 70 41 70 98S169 2 115 4C84 4 66-9 55-30l1 105H24l-1-265h31l2 30c10-21 28-34 59-34zm-8 174c40 0 45-34 45-75s-6-73-45-74c-42 0-51 32-51 76 0 43 10 73 51 73" id="aj"/><path fill="#333" d="M33 0v-248h34V0H33" id="ak"/><g id="p"><use transform="matrix(0.05,0,0,0.05,0,0)" xlink:href="#aj"/><use transform="matrix(0.05,0,0,0.05,10,0)" xlink:href="#ae"/><use transform="matrix(0.05,0,0,0.05,20,0)" xlink:href="#N"/><use transform="matrix(0.05,0,0,0.05,23.95,0)" xlink:href="#aa"/><use transform="matrix(0.05,0,0,0.05,27.899999999999995,0)" xlink:href="#Z"/><use transform="matrix(0.05,0,0,0.05,37.9,0)" xlink:href="#V"/><use transform="matrix(0.05,0,0,0.05,46.9,0)" xlink:href="#Z"/><use transform="matrix(0.05,0,0,0.05,56.900000000000006,0)" xlink:href="#aj"/><use transform="matrix(0.05,0,0,0.05,66.9,0)" xlink:href="#ae"/><use transform="matrix(0.05,0,0,0.05,76.9,0)" xlink:href="#U"/><use transform="matrix(0.05,0,0,0.05,86.9,0)" xlink:href="#X"/><use transform="matrix(0.05,0,0,0.05,92.85000000000001,0)" xlink:href="#ak"/><use transform="matrix(0.05,0,0,0.05,97.85000000000001,0)" xlink:href="#O"/><use transform="matrix(0.05,0,0,0.05,107.85000000000001,0)" xlink:href="#P"/></g><path fill="#333" d="M30-248c87 1 191-15 191 75 0 78-77 80-158 76V0H30v-248zm33 125c57 0 124 11 124-50 0-59-68-47-124-48v98" id="al"/><g id="q"><use transform="matrix(0.05,0,0,0.05,0,0)" xlink:href="#al"/><use transform="matrix(0.05,0,0,0.05,12,0)" xlink:href="#ae"/><use transform="matrix(0.05,0,0,0.05,22,0)" xlink:href="#N"/><use transform="matrix(0.05,0,0,0.05,25.950000000000003,0)" xlink:href="#aa"/><use transform="matrix(0.05,0,0,0.05,29.899999999999995,0)" xlink:href="#Z"/><use transform="matrix(0.05,0,0,0.05,39.9,0)" xlink:href="#V"/><use transform="matrix(0.05,0,0,0.05,48.9,0)" xlink:href="#Z"/><use transform="matrix(0.05,0,0,0.05,58.900000000000006,0)" xlink:href="#aj"/><use transform="matrix(0.05,0,0,0.05,68.9,0)" xlink:href="#ae"/><use transform="matrix(0.05,0,0,0.05,78.9,0)" xlink:href="#U"/><use transform="matrix(0.05,0,0,0.05,88.9,0)" xlink:href="#X"/></g><g id="r"><use transform="matrix(0.05,0,0,0.05,0,0)" xlink:href="#V"/><use transform="matrix(0.05,0,0,0.05,9,0)" xlink:href="#ai"/><use transform="matrix(0.05,0,0,0.05,18,0)" xlink:href="#ae"/><use transform="matrix(0.05,0,0,0.05,28,0)" xlink:href="#Z"/><use transform="matrix(0.05,0,0,0.05,38,0)" xlink:href="#Z"/><use transform="matrix(0.05,0,0,0.05,48,0)" xlink:href="#aa"/><use transform="matrix(0.05,0,0,0.05,51.95,0)" xlink:href="#ak"/><use transform="matrix(0.05,0,0,0.05,56.95,0)" xlink:href="#O"/><use transform="matrix(0.05,0,0,0.05,66.95,0)" xlink:href="#P"/></g><path fill="#333" d="M185-189c-5-48-123-54-124 2 14 75 158 14 163 119 3 78-121 87-175 55-17-10-28-26-33-46l33-7c5 56 141 63 141-1 0-78-155-14-162-118-5-82 145-84 179-34 5 7 8 16 11 25" id="am"/><g id="s"><use transform="matrix(0.05,0,0,0.05,0,0)" xlink:href="#al"/><use transform="matrix(0.05,0,0,0.05,12,0)" xlink:href="#ae"/><use transform="matrix(0.05,0,0,0.05,22,0)" xlink:href="#N"/><use transform="matrix(0.05,0,0,0.05,25.950000000000003,0)" xlink:href="#aa"/><use transform="matrix(0.05,0,0,0.05,29.899999999999995,0)" xlink:href="#Z"/><use transform="matrix(0.05,0,0,0.05,39.9,0)" xlink:href="#V"/><use transform="matrix(0.05,0,0,0.05,48.9,0)" xlink:href="#Z"/><use transform="matrix(0.05,0,0,0.05,58.900000000000006,0)" xlink:href="#aj"/><use transform="matrix(0.05,0,0,0.05,68.9,0)" xlink:href="#ae"/><use transform="matrix(0.05,0,0,0.05,78.9,0)" xlink:href="#ab"/><use transform="matrix(0.05,0,0,0.05,87.9,0)" xlink:href="#am"/><use transform="matrix(0.05,0,0,0.05,99.9,0)" xlink:href="#ai"/><use transform="matrix(0.05,0,0,0.05,108.9,0)" xlink:href="#ae"/><use transform="matrix(0.05,0,0,0.05,118.9,0)" xlink:href="#Z"/><use transform="matrix(0.05,0,0,0.05,128.9,0)" xlink:href="#Z"/><use transform="matrix(0.05,0,0,0.05,138.9,0)" xlink:href="#aa"/></g><path d="M27 0v-27h64v-190l-56 39v-29l58-41h29v221h61V0H27" id="an"/><use transform="matrix(0.05,0,0,0.05,0,0)" xlink:href="#an" id="t"/><path d="M101-251c68 0 85 55 85 127S166 4 100 4C33 4 14-52 14-124c0-73 17-127 87-127zm-1 229c47 0 54-49 54-102s-4-102-53-102c-51 0-55 48-55 102 0 53 5 102 54 102" id="ao"/><path d="M33 0v-38h34V0H33" id="ap"/><path d="M80-196l47-18 7 23-49 13 32 44-20 13-27-46-27 45-21-12 33-44-49-13 8-23 47 19-2-53h23" id="aq"/><g id="u"><use transform="matrix(0.05,0,0,0.05,0,0)" xlink:href="#ao"/><use transform="matrix(0.05,0,0,0.05,10,0)" xlink:href="#ap"/><use transform="matrix(0.05,0,0,0.05,15,0)" xlink:href="#ap"/><use transform="matrix(0.05,0,0,0.05,20,0)" xlink:href="#aq"/></g><path fill="#333" d="M84 4C32 4 15-41 15-95c0-55 18-99 73-99 29 0 47 12 58 34l2-30h48l-1 265h-49V-32C136-9 114 4 84 4zm21-34c32 0 41-29 41-66 0-36-9-64-40-64-33 0-39 30-40 65 0 43 13 65 39 65" id="ar"/><path fill="#333" d="M85 4C-2 5 27-109 22-190h50c7 57-23 150 33 157 60-5 35-97 40-157h50l1 190h-47c-2-12 1-28-3-38-12 25-28 42-61 42" id="as"/><path fill="#333" d="M115-3C79 11 28 4 28-45v-112H4v-33h27l15-45h31v45h36v33H77v99c-1 23 16 31 38 25v30" id="at"/><g id="v"><use transform="matrix(0.05,0,0,0.05,0,0)" xlink:href="#ar"/><use transform="matrix(0.05,0,0,0.05,10.950000000000001,0)" xlink:href="#as"/><use transform="matrix(0.05,0,0,0.05,21.900000000000002,0)" xlink:href="#J"/><use transform="matrix(0.05,0,0,0.05,32.85,0)" xlink:href="#at"/><use transform="matrix(0.05,0,0,0.05,38.800000000000004,0)" xlink:href="#L"/></g><g id="w"><use transform="matrix(0.05,0,0,0.05,0,0)" xlink:href="#aj"/><use transform="matrix(0.05,0,0,0.05,10,0)" xlink:href="#ae"/><use transform="matrix(0.05,0,0,0.05,20,0)" xlink:href="#X"/><use transform="matrix(0.05,0,0,0.05,25.950000000000003,0)" xlink:href="#S"/><use transform="matrix(0.05,0,0,0.05,35.95,0)" xlink:href="#V"/><use transform="matrix(0.05,0,0,0.05,44.95,0)" xlink:href="#U"/><use transform="matrix(0.05,0,0,0.05,54.95,0)" xlink:href="#P"/></g><g id="x"><use transform="matrix(0.05,0,0,0.05,0,0)" xlink:href="#al"/><use transform="matrix(0.05,0,0,0.05,12,0)" xlink:href="#ae"/><use transform="matrix(0.05,0,0,0.05,22,0)" xlink:href="#N"/><use transform="matrix(0.05,0,0,0.05,25.950000000000003,0)" xlink:href="#aa"/><use transform="matrix(0.05,0,0,0.05,29.899999999999995,0)" xlink:href="#Z"/><use transform="matrix(0.05,0,0,0.05,39.9,0)" xlink:href="#V"/><use transform="matrix(0.05,0,0,0.05,48.9,0)" xlink:href="#Z"/><use transform="matrix(0.05,0,0,0.05,58.900000000000006,0)" xlink:href="#aj"/><use transform="matrix(0.05,0,0,0.05,68.9,0)" xlink:href="#ae"/><use transform="matrix(0.05,0,0,0.05,78.9,0)" xlink:href="#U"/><use transform="matrix(0.05,0,0,0.05,88.9,0)" xlink:href="#X"/></g><g id="y"><use transform="matrix(0.05,0,0,0.05,0,0)" xlink:href="#as"/><use transform="matrix(0.05,0,0,0.05,10.950000000000001,0)" xlink:href="#K"/><use transform="matrix(0.05,0,0,0.05,20.950000000000003,0)" xlink:href="#L"/><use transform="matrix(0.05,0,0,0.05,30.950000000000003,0)" xlink:href="#M"/></g><g id="z"><use transform="matrix(0.05,0,0,0.05,0,0)" xlink:href="#R"/><use transform="matrix(0.05,0,0,0.05,10,0)" xlink:href="#S"/><use transform="matrix(0.05,0,0,0.05,20,0)" xlink:href="#T"/><use transform="matrix(0.05,0,0,0.05,34.95,0)" xlink:href="#U"/><use transform="matrix(0.05,0,0,0.05,44.95,0)" xlink:href="#P"/></g><g id="A"><use transform="matrix(0.05,0,0,0.05,0,0)" xlink:href="#V"/><use transform="matrix(0.05,0,0,0.05,9,0)" xlink:href="#W"/><use transform="matrix(0.05,0,0,0.05,14,0)" xlink:href="#X"/><use transform="matrix(0.05,0,0,0.05,19.95,0)" xlink:href="#N"/><use transform="matrix(0.05,0,0,0.05,23.9,0)" xlink:href="#R"/><use transform="matrix(0.05,0,0,0.05,33.9,0)" xlink:href="#Y"/></g><g id="B"><use transform="matrix(0.05,0,0,0.05,0,0)" xlink:href="#U"/><use transform="matrix(0.05,0,0,0.05,10,0)" xlink:href="#T"/><use transform="matrix(0.05,0,0,0.05,24.950000000000003,0)" xlink:href="#S"/><use transform="matrix(0.05,0,0,0.05,34.95,0)" xlink:href="#N"/><use transform="matrix(0.05,0,0,0.05,38.900000000000006,0)" xlink:href="#aa"/><use transform="matrix(0.05,0,0,0.05,42.85000000000001,0)" xlink:href="#P"/></g><g id="C"><use transform="matrix(0.05,0,0,0.05,0,0)" xlink:href="#V"/><use transform="matrix(0.05,0,0,0.05,9,0)" xlink:href="#W"/><use transform="matrix(0.05,0,0,0.05,14,0)" xlink:href="#X"/><use transform="matrix(0.05,0,0,0.05,19.95,0)" xlink:href="#N"/><use transform="matrix(0.05,0,0,0.05,23.9,0)" xlink:href="#R"/><use transform="matrix(0.05,0,0,0.05,33.9,0)" xlink:href="#Y"/></g><path fill="#333" d="M206 0h-36l-40-164L89 0H53L-1-190h32L70-26l43-164h34l41 164 42-164h31" id="au"/><g id="D"><use transform="matrix(0.05,0,0,0.05,0,0)" xlink:href="#aj"/><use transform="matrix(0.05,0,0,0.05,10,0)" xlink:href="#S"/><use transform="matrix(0.05,0,0,0.05,20,0)" xlink:href="#V"/><use transform="matrix(0.05,0,0,0.05,29,0)" xlink:href="#V"/><use transform="matrix(0.05,0,0,0.05,38,0)" xlink:href="#au"/><use transform="matrix(0.05,0,0,0.05,50.95,0)" xlink:href="#Z"/><use transform="matrix(0.05,0,0,0.05,60.95,0)" xlink:href="#X"/><use transform="matrix(0.05,0,0,0.05,66.9,0)" xlink:href="#O"/><use transform="matrix(0.05,0,0,0.05,76.9,0)" xlink:href="#P"/></g><g id="E"><use transform="matrix(0.05,0,0,0.05,0,0)" xlink:href="#V"/><use transform="matrix(0.05,0,0,0.05,9,0)" xlink:href="#W"/><use transform="matrix(0.05,0,0,0.05,14,0)" xlink:href="#X"/><use transform="matrix(0.05,0,0,0.05,19.95,0)" xlink:href="#N"/><use transform="matrix(0.05,0,0,0.05,23.9,0)" xlink:href="#R"/><use transform="matrix(0.05,0,0,0.05,33.9,0)" xlink:href="#Y"/></g></defs></g></svg>